<mxfile host="app.diagrams.net" modified="2024-01-24T07:05:40.257Z" agent="Mozilla/5.0 (Windows NT 10.0; Win64; x64) AppleWebKit/537.36 (KHTML, like Gecko) Chrome/120.0.0.0 Safari/537.36" etag="FLE-mxQjV39r6gJ5kRh8" version="23.0.0" type="device">
  <diagram name="Page-1" id="IAnaqQeqKujspXw5tJvC">
    <mxGraphModel dx="838" dy="438" grid="1" gridSize="10" guides="1" tooltips="1" connect="1" arrows="1" fold="1" page="1" pageScale="1" pageWidth="850" pageHeight="1400" math="0" shadow="0">
      <root>
        <mxCell id="0" />
        <mxCell id="1" parent="0" />
        <mxCell id="pcbNJTxUlWQH3zpjiryI-1" value="&lt;font face=&quot;Times New Roman&quot;&gt;&lt;b&gt;Start of a Summer &lt;br&gt;Week Vacation&lt;/b&gt;&lt;br&gt;&lt;/font&gt;" style="rounded=1;whiteSpace=wrap;html=1;fillColor=#f8cecc;strokeColor=#b85450;" vertex="1" parent="1">
          <mxGeometry x="340" y="40" width="120" height="60" as="geometry" />
        </mxCell>
        <mxCell id="pcbNJTxUlWQH3zpjiryI-6" value="" style="endArrow=classic;html=1;rounded=0;" edge="1" parent="1">
          <mxGeometry width="50" height="50" relative="1" as="geometry">
            <mxPoint x="399.5" y="100" as="sourcePoint" />
            <mxPoint x="400" y="140" as="targetPoint" />
          </mxGeometry>
        </mxCell>
        <mxCell id="pcbNJTxUlWQH3zpjiryI-11" value="" style="edgeStyle=elbowEdgeStyle;elbow=horizontal;endArrow=classic;html=1;curved=0;rounded=0;endSize=8;startSize=8;" edge="1" parent="1">
          <mxGeometry width="50" height="50" relative="1" as="geometry">
            <mxPoint x="492.5" y="280" as="sourcePoint" />
            <mxPoint x="559" y="320" as="targetPoint" />
            <Array as="points">
              <mxPoint x="559" y="310" />
              <mxPoint x="560" y="280" />
            </Array>
          </mxGeometry>
        </mxCell>
        <mxCell id="pcbNJTxUlWQH3zpjiryI-13" value="&lt;font style=&quot;font-size: 10px;&quot; face=&quot;Times New Roman&quot;&gt;First Trip: Magellan&#39;s Cross&lt;br&gt;in Cebu&lt;/font&gt;" style="shape=parallelogram;perimeter=parallelogramPerimeter;whiteSpace=wrap;html=1;fixedSize=1;fillColor=#fff2cc;strokeColor=#d6b656;" vertex="1" parent="1">
          <mxGeometry x="302.5" y="140" width="190" height="60" as="geometry" />
        </mxCell>
        <mxCell id="pcbNJTxUlWQH3zpjiryI-16" value="" style="endArrow=classic;html=1;rounded=0;" edge="1" parent="1">
          <mxGeometry width="50" height="50" relative="1" as="geometry">
            <mxPoint x="399.5" y="200" as="sourcePoint" />
            <mxPoint x="399.5" y="240" as="targetPoint" />
          </mxGeometry>
        </mxCell>
        <mxCell id="pcbNJTxUlWQH3zpjiryI-17" value="&lt;font face=&quot;Times New Roman&quot; style=&quot;font-size: 10px;&quot;&gt;Spend another&lt;br&gt;&lt;/font&gt;&lt;font style=&quot;font-size: 10px;&quot; face=&quot;Times New Roman&quot;&gt;two days in Cebu?&lt;/font&gt;" style="rhombus;whiteSpace=wrap;html=1;fillColor=#ffe6cc;strokeColor=#d79b00;" vertex="1" parent="1">
          <mxGeometry x="307.5" y="240" width="185" height="80" as="geometry" />
        </mxCell>
        <mxCell id="pcbNJTxUlWQH3zpjiryI-18" value="" style="edgeStyle=elbowEdgeStyle;elbow=horizontal;endArrow=classic;html=1;curved=0;rounded=0;endSize=8;startSize=8;exitX=0;exitY=0.5;exitDx=0;exitDy=0;" edge="1" parent="1" source="pcbNJTxUlWQH3zpjiryI-17">
          <mxGeometry width="50" height="50" relative="1" as="geometry">
            <mxPoint x="300" y="280" as="sourcePoint" />
            <mxPoint x="240" y="320" as="targetPoint" />
            <Array as="points">
              <mxPoint x="240" y="280" />
            </Array>
          </mxGeometry>
        </mxCell>
        <mxCell id="pcbNJTxUlWQH3zpjiryI-19" value="&lt;font style=&quot;font-size: 10px;&quot; face=&quot;Times New Roman&quot;&gt;If no, book flight going to Bohol&lt;/font&gt;" style="rounded=0;whiteSpace=wrap;html=1;fillColor=#e1d5e7;strokeColor=#9673a6;" vertex="1" parent="1">
          <mxGeometry x="187.5" y="320" width="120" height="60" as="geometry" />
        </mxCell>
        <mxCell id="pcbNJTxUlWQH3zpjiryI-20" value="&lt;font style=&quot;font-size: 10px;&quot; face=&quot;Times New Roman&quot;&gt;If yes, visit other historical landmarks and try new dishes&lt;/font&gt;" style="rounded=0;whiteSpace=wrap;html=1;fillColor=#e1d5e7;strokeColor=#9673a6;" vertex="1" parent="1">
          <mxGeometry x="490" y="320" width="130" height="60" as="geometry" />
        </mxCell>
        <mxCell id="pcbNJTxUlWQH3zpjiryI-22" value="" style="edgeStyle=elbowEdgeStyle;elbow=horizontal;endArrow=classic;html=1;curved=0;rounded=0;endSize=8;startSize=8;entryX=0.073;entryY=0.342;entryDx=0;entryDy=0;entryPerimeter=0;" edge="1" parent="1" target="pcbNJTxUlWQH3zpjiryI-31">
          <mxGeometry width="50" height="50" relative="1" as="geometry">
            <mxPoint x="244.77" y="380" as="sourcePoint" />
            <mxPoint x="300" y="522" as="targetPoint" />
            <Array as="points">
              <mxPoint x="240" y="522" />
            </Array>
          </mxGeometry>
        </mxCell>
        <mxCell id="pcbNJTxUlWQH3zpjiryI-26" value="&lt;font style=&quot;font-size: 10px;&quot;&gt;&lt;font style=&quot;font-size: 10px;&quot; face=&quot;Times New Roman&quot;&gt;Fort San Pedro &amp;amp; Mactan Shrine&lt;br&gt;Tuslob Buwa &amp;amp; Pungko Pungko&lt;/font&gt;&lt;br&gt;&lt;/font&gt;" style="rounded=0;whiteSpace=wrap;html=1;fillColor=#e1d5e7;strokeColor=#9673a6;" vertex="1" parent="1">
          <mxGeometry x="490" y="420" width="130" height="60" as="geometry" />
        </mxCell>
        <mxCell id="pcbNJTxUlWQH3zpjiryI-28" value="" style="edgeStyle=elbowEdgeStyle;elbow=horizontal;endArrow=classic;html=1;curved=0;rounded=0;endSize=8;startSize=8;" edge="1" parent="1">
          <mxGeometry width="50" height="50" relative="1" as="geometry">
            <mxPoint x="560.5" y="380" as="sourcePoint" />
            <mxPoint x="560" y="420" as="targetPoint" />
            <Array as="points">
              <mxPoint x="560" y="490" />
            </Array>
          </mxGeometry>
        </mxCell>
        <mxCell id="pcbNJTxUlWQH3zpjiryI-30" value="" style="edgeStyle=elbowEdgeStyle;elbow=horizontal;endArrow=classic;html=1;curved=0;rounded=0;endSize=8;startSize=8;" edge="1" parent="1" target="pcbNJTxUlWQH3zpjiryI-31">
          <mxGeometry width="50" height="50" relative="1" as="geometry">
            <mxPoint x="560" y="480" as="sourcePoint" />
            <mxPoint x="490" y="520" as="targetPoint" />
            <Array as="points">
              <mxPoint x="560" y="520" />
            </Array>
          </mxGeometry>
        </mxCell>
        <mxCell id="pcbNJTxUlWQH3zpjiryI-31" value="&lt;font face=&quot;Times New Roman&quot; style=&quot;font-size: 10px;&quot;&gt;Second Trip: Baclayon&lt;br&gt;Church in Bohol&lt;/font&gt;" style="shape=parallelogram;perimeter=parallelogramPerimeter;whiteSpace=wrap;html=1;fixedSize=1;fillColor=#fff2cc;strokeColor=#d6b656;" vertex="1" parent="1">
          <mxGeometry x="290" y="500" width="190" height="60" as="geometry" />
        </mxCell>
        <mxCell id="pcbNJTxUlWQH3zpjiryI-32" value="" style="endArrow=classic;html=1;rounded=0;" edge="1" parent="1">
          <mxGeometry width="50" height="50" relative="1" as="geometry">
            <mxPoint x="396.91" y="560" as="sourcePoint" />
            <mxPoint x="396.91" y="600" as="targetPoint" />
          </mxGeometry>
        </mxCell>
        <mxCell id="pcbNJTxUlWQH3zpjiryI-33" value="&lt;font style=&quot;font-size: 10px;&quot; face=&quot;Times New Roman&quot;&gt;Have Bohol as the place&amp;nbsp;&lt;br&gt;&lt;font style=&quot;font-size: 10px;&quot;&gt;of relaxation?&lt;/font&gt;&lt;/font&gt;" style="rhombus;whiteSpace=wrap;html=1;fillColor=#ffe6cc;strokeColor=#d79b00;" vertex="1" parent="1">
          <mxGeometry x="302.5" y="700" width="185" height="80" as="geometry" />
        </mxCell>
        <mxCell id="pcbNJTxUlWQH3zpjiryI-37" value="&lt;font style=&quot;font-size: 10px;&quot; face=&quot;Times New Roman&quot;&gt;Visit more historical landmarks &lt;br&gt;and tourist spots&lt;/font&gt;" style="rounded=0;whiteSpace=wrap;html=1;fillColor=#e1d5e7;strokeColor=#9673a6;" vertex="1" parent="1">
          <mxGeometry x="317.5" y="600" width="160" height="60" as="geometry" />
        </mxCell>
        <mxCell id="pcbNJTxUlWQH3zpjiryI-39" value="" style="endArrow=classic;html=1;rounded=0;" edge="1" parent="1">
          <mxGeometry width="50" height="50" relative="1" as="geometry">
            <mxPoint x="396.91" y="660" as="sourcePoint" />
            <mxPoint x="396.91" y="700" as="targetPoint" />
          </mxGeometry>
        </mxCell>
        <mxCell id="pcbNJTxUlWQH3zpjiryI-40" value="" style="edgeStyle=elbowEdgeStyle;elbow=horizontal;endArrow=classic;html=1;curved=0;rounded=0;endSize=8;startSize=8;exitX=0;exitY=0.5;exitDx=0;exitDy=0;" edge="1" parent="1">
          <mxGeometry width="50" height="50" relative="1" as="geometry">
            <mxPoint x="307.5" y="740" as="sourcePoint" />
            <mxPoint x="239.5" y="780" as="targetPoint" />
            <Array as="points">
              <mxPoint x="239.5" y="740" />
            </Array>
          </mxGeometry>
        </mxCell>
        <mxCell id="pcbNJTxUlWQH3zpjiryI-41" value="" style="edgeStyle=elbowEdgeStyle;elbow=horizontal;endArrow=classic;html=1;curved=0;rounded=0;endSize=8;startSize=8;exitX=1;exitY=0.5;exitDx=0;exitDy=0;" edge="1" parent="1" source="pcbNJTxUlWQH3zpjiryI-33">
          <mxGeometry width="50" height="50" relative="1" as="geometry">
            <mxPoint x="492.5" y="740" as="sourcePoint" />
            <mxPoint x="559" y="780" as="targetPoint" />
            <Array as="points">
              <mxPoint x="559" y="770" />
              <mxPoint x="560" y="740" />
            </Array>
          </mxGeometry>
        </mxCell>
        <mxCell id="pcbNJTxUlWQH3zpjiryI-42" value="&lt;font face=&quot;Times New Roman&quot;&gt;&lt;span style=&quot;font-size: 10px;&quot;&gt;If no,&amp;nbsp; do food related&lt;br&gt;&lt;/span&gt;&lt;/font&gt;&lt;font style=&quot;font-size: 10px;&quot; face=&quot;Times New Roman&quot;&gt;adventures&lt;/font&gt;" style="rounded=0;whiteSpace=wrap;html=1;fillColor=#e1d5e7;strokeColor=#9673a6;" vertex="1" parent="1">
          <mxGeometry x="182.5" y="780" width="120" height="60" as="geometry" />
        </mxCell>
        <mxCell id="pcbNJTxUlWQH3zpjiryI-43" value="&lt;font face=&quot;Times New Roman&quot;&gt;&lt;span style=&quot;font-size: 10px;&quot;&gt;If yes, book an Air BNB&amp;nbsp;&lt;/span&gt;&lt;/font&gt;" style="rounded=0;whiteSpace=wrap;html=1;fillColor=#e1d5e7;strokeColor=#9673a6;" vertex="1" parent="1">
          <mxGeometry x="492.5" y="780" width="120" height="60" as="geometry" />
        </mxCell>
        <mxCell id="pcbNJTxUlWQH3zpjiryI-44" value="" style="endArrow=classic;html=1;rounded=0;" edge="1" parent="1">
          <mxGeometry width="50" height="50" relative="1" as="geometry">
            <mxPoint x="240.00000000000003" y="840" as="sourcePoint" />
            <mxPoint x="240.00000000000003" y="880" as="targetPoint" />
          </mxGeometry>
        </mxCell>
        <mxCell id="pcbNJTxUlWQH3zpjiryI-45" value="&lt;font face=&quot;Times New Roman&quot;&gt;&lt;span style=&quot;font-size: 10px;&quot;&gt;Buy local delicacies and&amp;nbsp;&lt;br&gt;try new dishes&lt;br&gt;&lt;/span&gt;&lt;/font&gt;" style="rounded=0;whiteSpace=wrap;html=1;fillColor=#e1d5e7;strokeColor=#9673a6;" vertex="1" parent="1">
          <mxGeometry x="182.5" y="880" width="120" height="60" as="geometry" />
        </mxCell>
        <mxCell id="pcbNJTxUlWQH3zpjiryI-46" value="" style="endArrow=classic;html=1;rounded=0;" edge="1" parent="1">
          <mxGeometry width="50" height="50" relative="1" as="geometry">
            <mxPoint x="560" y="840" as="sourcePoint" />
            <mxPoint x="560" y="880" as="targetPoint" />
          </mxGeometry>
        </mxCell>
        <mxCell id="pcbNJTxUlWQH3zpjiryI-47" value="&lt;font face=&quot;Times New Roman&quot;&gt;&lt;span style=&quot;font-size: 10px;&quot;&gt;Stay for a day and unwind around the area&lt;/span&gt;&lt;/font&gt;" style="rounded=0;whiteSpace=wrap;html=1;fillColor=#e1d5e7;strokeColor=#9673a6;" vertex="1" parent="1">
          <mxGeometry x="495" y="880" width="120" height="60" as="geometry" />
        </mxCell>
        <mxCell id="pcbNJTxUlWQH3zpjiryI-48" value="" style="edgeStyle=elbowEdgeStyle;elbow=horizontal;endArrow=classic;html=1;curved=0;rounded=0;endSize=8;startSize=8;entryX=0.969;entryY=0.35;entryDx=0;entryDy=0;entryPerimeter=0;" edge="1" parent="1" target="pcbNJTxUlWQH3zpjiryI-50">
          <mxGeometry width="50" height="50" relative="1" as="geometry">
            <mxPoint x="556.81" y="940" as="sourcePoint" />
            <mxPoint x="487.49999999999983" y="970.3199999999999" as="targetPoint" />
            <Array as="points">
              <mxPoint x="559.81" y="990" />
              <mxPoint x="559.81" y="970" />
              <mxPoint x="509.81" y="980" />
              <mxPoint x="556.81" y="980" />
            </Array>
          </mxGeometry>
        </mxCell>
        <mxCell id="pcbNJTxUlWQH3zpjiryI-49" value="" style="edgeStyle=elbowEdgeStyle;elbow=horizontal;endArrow=classic;html=1;curved=0;rounded=0;endSize=8;startSize=8;" edge="1" parent="1">
          <mxGeometry width="50" height="50" relative="1" as="geometry">
            <mxPoint x="247" y="940" as="sourcePoint" />
            <mxPoint x="310" y="980" as="targetPoint" />
            <Array as="points">
              <mxPoint x="247" y="980" />
            </Array>
          </mxGeometry>
        </mxCell>
        <mxCell id="pcbNJTxUlWQH3zpjiryI-50" value="&lt;font face=&quot;Times New Roman&quot;&gt;&lt;span style=&quot;font-size: 10px;&quot;&gt;Last Trip: Kadayawan Village in Davao&lt;/span&gt;&lt;/font&gt;" style="shape=parallelogram;perimeter=parallelogramPerimeter;whiteSpace=wrap;html=1;fixedSize=1;fillColor=#fff2cc;strokeColor=#d6b656;" vertex="1" parent="1">
          <mxGeometry x="297.5" y="960" width="190" height="60" as="geometry" />
        </mxCell>
        <mxCell id="pcbNJTxUlWQH3zpjiryI-208" value="" style="endArrow=classic;html=1;rounded=0;" edge="1" parent="1">
          <mxGeometry width="50" height="50" relative="1" as="geometry">
            <mxPoint x="399.52000000000004" y="1020" as="sourcePoint" />
            <mxPoint x="399.52000000000004" y="1060" as="targetPoint" />
          </mxGeometry>
        </mxCell>
        <mxCell id="pcbNJTxUlWQH3zpjiryI-212" value="&lt;font face=&quot;Times New Roman&quot;&gt;&lt;span style=&quot;font-size: 10px;&quot;&gt;Last day activity&amp;nbsp;&lt;br&gt;to do&lt;br&gt;&lt;/span&gt;&lt;/font&gt;" style="rhombus;whiteSpace=wrap;html=1;fillColor=#ffe6cc;strokeColor=#d79b00;" vertex="1" parent="1">
          <mxGeometry x="307.5" y="1060" width="185" height="80" as="geometry" />
        </mxCell>
        <mxCell id="pcbNJTxUlWQH3zpjiryI-213" value="" style="edgeStyle=elbowEdgeStyle;elbow=horizontal;endArrow=classic;html=1;curved=0;rounded=0;endSize=8;startSize=8;exitX=0;exitY=0.5;exitDx=0;exitDy=0;" edge="1" parent="1">
          <mxGeometry width="50" height="50" relative="1" as="geometry">
            <mxPoint x="307.5" y="1100" as="sourcePoint" />
            <mxPoint x="239.5" y="1140" as="targetPoint" />
            <Array as="points">
              <mxPoint x="239.5" y="1100" />
            </Array>
          </mxGeometry>
        </mxCell>
        <mxCell id="pcbNJTxUlWQH3zpjiryI-214" value="" style="edgeStyle=elbowEdgeStyle;elbow=horizontal;endArrow=classic;html=1;curved=0;rounded=0;endSize=8;startSize=8;exitX=1;exitY=0.5;exitDx=0;exitDy=0;" edge="1" parent="1">
          <mxGeometry width="50" height="50" relative="1" as="geometry">
            <mxPoint x="495" y="1100" as="sourcePoint" />
            <mxPoint x="566" y="1140" as="targetPoint" />
            <Array as="points">
              <mxPoint x="566" y="1130" />
              <mxPoint x="567" y="1100" />
            </Array>
          </mxGeometry>
        </mxCell>
        <mxCell id="pcbNJTxUlWQH3zpjiryI-215" value="&lt;font face=&quot;Times New Roman&quot;&gt;&lt;span style=&quot;font-size: 10px;&quot;&gt;Give treats to the&amp;nbsp;&lt;br&gt;Moro children&lt;br&gt;&lt;/span&gt;&lt;/font&gt;" style="rounded=0;whiteSpace=wrap;html=1;fillColor=#e1d5e7;strokeColor=#9673a6;" vertex="1" parent="1">
          <mxGeometry x="182.5" y="1140" width="120" height="60" as="geometry" />
        </mxCell>
        <mxCell id="pcbNJTxUlWQH3zpjiryI-216" value="&lt;font face=&quot;Times New Roman&quot;&gt;&lt;span style=&quot;font-size: 10px;&quot;&gt;Visit animal shelters and&lt;br&gt;donate something&lt;br&gt;&lt;/span&gt;&lt;/font&gt;" style="rounded=0;whiteSpace=wrap;html=1;fillColor=#e1d5e7;strokeColor=#9673a6;" vertex="1" parent="1">
          <mxGeometry x="500" y="1140" width="120" height="60" as="geometry" />
        </mxCell>
        <mxCell id="pcbNJTxUlWQH3zpjiryI-217" value="" style="edgeStyle=elbowEdgeStyle;elbow=horizontal;endArrow=classic;html=1;curved=0;rounded=0;endSize=8;startSize=8;entryX=1;entryY=0.5;entryDx=0;entryDy=0;" edge="1" parent="1" target="pcbNJTxUlWQH3zpjiryI-221">
          <mxGeometry width="50" height="50" relative="1" as="geometry">
            <mxPoint x="565.41" y="1200" as="sourcePoint" />
            <mxPoint x="470" y="1240" as="targetPoint" />
            <Array as="points">
              <mxPoint x="568.41" y="1250" />
              <mxPoint x="568.41" y="1230" />
              <mxPoint x="518.41" y="1240" />
              <mxPoint x="565.41" y="1240" />
            </Array>
          </mxGeometry>
        </mxCell>
        <mxCell id="pcbNJTxUlWQH3zpjiryI-218" value="" style="edgeStyle=elbowEdgeStyle;elbow=horizontal;endArrow=classic;html=1;curved=0;rounded=0;endSize=8;startSize=8;entryX=0;entryY=0.5;entryDx=0;entryDy=0;" edge="1" parent="1" target="pcbNJTxUlWQH3zpjiryI-221">
          <mxGeometry width="50" height="50" relative="1" as="geometry">
            <mxPoint x="244.38" y="1200" as="sourcePoint" />
            <mxPoint x="337.5000000000001" y="1272.98" as="targetPoint" />
            <Array as="points">
              <mxPoint x="244" y="1270" />
              <mxPoint x="244.38" y="1240" />
            </Array>
          </mxGeometry>
        </mxCell>
        <mxCell id="pcbNJTxUlWQH3zpjiryI-220" value="&lt;font face=&quot;Times New Roman&quot;&gt;&lt;b&gt;End of a Summer&lt;br&gt;Week Vacation&lt;/b&gt;&lt;br&gt;&lt;/font&gt;" style="rounded=1;whiteSpace=wrap;html=1;fillColor=#f8cecc;strokeColor=#b85450;" vertex="1" parent="1">
          <mxGeometry x="340" y="1310" width="120" height="60" as="geometry" />
        </mxCell>
        <mxCell id="pcbNJTxUlWQH3zpjiryI-221" value="&lt;font face=&quot;Times New Roman&quot;&gt;&lt;span style=&quot;font-size: 10px;&quot;&gt;Take a flight and head&lt;br&gt;home to Manila&lt;br&gt;&lt;/span&gt;&lt;/font&gt;" style="rounded=0;whiteSpace=wrap;html=1;fillColor=#e1d5e7;strokeColor=#9673a6;" vertex="1" parent="1">
          <mxGeometry x="340" y="1210" width="120" height="60" as="geometry" />
        </mxCell>
        <mxCell id="pcbNJTxUlWQH3zpjiryI-222" value="" style="endArrow=classic;html=1;rounded=0;" edge="1" parent="1">
          <mxGeometry width="50" height="50" relative="1" as="geometry">
            <mxPoint x="399.52000000000004" y="1270" as="sourcePoint" />
            <mxPoint x="399.52000000000004" y="1310" as="targetPoint" />
          </mxGeometry>
        </mxCell>
      </root>
    </mxGraphModel>
  </diagram>
</mxfile>
